<svg width="27" height="27" viewBox="0 0 27 27" fill="none" xmlns="http://www.w3.org/2000/svg">
<path d="M12.3289 3C11.0253 3.0007 9.74007 3.3072 8.57648 3.89488C7.41289 4.48257 6.4034 5.33503 5.62914 6.38376C4.85489 7.43249 4.33746 8.64824 4.11845 9.93328C3.89944 11.2183 3.98496 12.5368 4.36813 13.7828C4.7513 15.0288 5.42144 16.1675 6.32468 17.1075C7.22792 18.0474 8.33908 18.7623 9.56883 19.1948C10.7986 19.6272 12.1126 19.7651 13.4054 19.5974C14.6981 19.4297 15.9335 18.9611 17.0122 18.2292L22.1622 23.375C22.3053 23.5285 22.4778 23.6516 22.6694 23.737C22.8611 23.8224 23.068 23.8684 23.2778 23.8721C23.4876 23.8758 23.696 23.8372 23.8905 23.7586C24.0851 23.68 24.2618 23.563 24.4102 23.4147C24.5586 23.2663 24.6756 23.0896 24.7541 22.895C24.8327 22.7004 24.8713 22.492 24.8676 22.2822C24.8639 22.0724 24.818 21.8655 24.7326 21.6739C24.6472 21.4822 24.5241 21.3097 24.3705 21.1667L19.2247 16.0167C20.076 14.7637 20.5697 13.3024 20.6527 11.7899C20.7357 10.2773 20.4048 8.77078 19.6957 7.43221C18.9866 6.09364 17.926 4.97368 16.628 4.19274C15.33 3.41181 13.8437 2.99945 12.3289 3ZM7.12055 11.3333C7.12055 9.952 7.66928 8.62724 8.64603 7.65049C9.62278 6.67373 10.9475 6.125 12.3289 6.125C13.7102 6.125 15.035 6.67373 16.0117 7.65049C16.9885 8.62724 17.5372 9.952 17.5372 11.3333C17.5372 12.7147 16.9885 14.0394 16.0117 15.0162C15.035 15.9929 13.7102 16.5417 12.3289 16.5417C10.9475 16.5417 9.62278 15.9929 8.64603 15.0162C7.66928 14.0394 7.12055 12.7147 7.12055 11.3333Z" fill="#E33258"/>
</svg>
