<svg width="38" height="39" viewBox="0 0 38 39" fill="none" xmlns="http://www.w3.org/2000/svg">
<path d="M2 13.5H36L34.2256 32.6966C34.1297 33.7356 33.6425 34.7018 32.8597 35.4055C32.0769 36.1092 31.055 36.4996 29.9947 36.5H8.00525C6.94496 36.4996 5.92311 36.1092 5.14032 35.4055C4.35753 34.7018 3.87033 33.7356 3.77438 32.6966L2 13.5Z" stroke="#E33258" stroke-width="3.95833" stroke-linejoin="round"/>
<path d="M11 17.5V11.0714C11 8.79814 11.8955 6.61797 13.4896 5.01051C15.0837 3.40306 17.2457 2.5 19.5 2.5C21.7543 2.5 23.9163 3.40306 25.5104 5.01051C27.1045 6.61797 28 8.79814 28 11.0714V17.5" stroke="#E33258" stroke-width="3.95833" stroke-linecap="round"/>
</svg>
