<svg width="88" height="61" viewBox="0 0 88 61" fill="none" xmlns="http://www.w3.org/2000/svg">
<path opacity="0.9" d="M5.00227 60.4179H60.0272C62.7785 60.4179 65.0295 58.1878 65.0295 55.462C65.0295 52.7362 62.7785 50.5061 60.0272 50.5061H5.00227C2.25102 50.5061 0 52.7362 0 55.462C0 58.1878 2.25102 60.4179 5.00227 60.4179ZM5.00227 35.6383H45.0204C47.7717 35.6383 50.0227 33.4081 50.0227 30.6824C50.0227 27.9566 47.7717 25.7264 45.0204 25.7264H5.00227C2.25102 25.7264 0 27.9566 0 30.6824C0 33.4081 2.25102 35.6383 5.00227 35.6383ZM0 5.90271C0 8.62847 2.25102 10.8586 5.00227 10.8586H60.0272C62.7785 10.8586 65.0295 8.62847 65.0295 5.90271C65.0295 3.17695 62.7785 0.946777 60.0272 0.946777H5.00227C2.25102 0.946777 0 3.17695 0 5.90271ZM86.5392 44.9554L72.1327 30.6824L86.5392 16.4093C87.0024 15.9504 87.3697 15.4057 87.6204 14.8062C87.871 14.2068 88 13.5642 88 12.9153C88 12.2665 87.871 11.6239 87.6204 11.0244C87.3697 10.425 87.0024 9.88025 86.5392 9.42142C86.0761 8.96259 85.5263 8.59862 84.9212 8.35031C84.3161 8.10199 83.6676 7.97418 83.0126 7.97418C82.3577 7.97418 81.7092 8.10199 81.1041 8.35031C80.499 8.59862 79.9492 8.96259 79.486 9.42142L61.5279 27.2132C61.0642 27.6717 60.6963 28.2163 60.4452 28.8158C60.1942 29.4154 60.065 30.0581 60.065 30.7071C60.065 31.3562 60.1942 31.9989 60.4452 32.5984C60.6963 33.198 61.0642 33.7426 61.5279 34.2011L79.486 51.9928C81.4369 53.9257 84.5884 53.9257 86.5392 51.9928C88.4401 50.06 88.4901 46.8882 86.5392 44.9554Z" fill="#F5E44F"/>
</svg>
